<svg version="1.1" id="Layer_1" xmlns="http://www.w3.org/2000/svg" xmlns:xlink="http://www.w3.org/1999/xlink" x="0px" y="0px"
	 width="100%" viewBox="0 0 832 313" enable-background="new 0 0 832 313" xml:space="preserve">
<path fill="#FEFEFE" opacity="1.000000" stroke="none" 
	d="
M525.000000,314.000000 
	C350.038086,314.000000 175.576172,314.000000 1.057133,314.000000 
	C1.057133,209.727554 1.057133,105.455070 1.057133,1.091292 
	C278.211914,1.091292 555.423828,1.091292 832.817871,1.091292 
	C832.817871,105.333084 832.817871,209.666504 832.817871,314.000000 
	C730.455078,314.000000 627.977539,314.000000 525.000000,314.000000 
M295.527222,253.003784 
	C301.458862,253.003784 307.390533,253.003784 313.646179,253.003784 
	C313.646179,247.433853 313.646240,242.460358 313.646179,237.486877 
	C313.645782,191.324554 313.666718,145.162216 313.629364,98.999931 
	C313.620331,87.837723 308.137390,82.366653 297.096527,82.289886 
	C290.597443,82.244698 284.088501,82.499359 277.600739,82.224052 
	C269.161682,81.865944 262.680237,84.496689 259.308960,93.671097 
	C255.875275,84.103508 248.973816,81.840385 240.383087,82.225426 
	C234.229431,82.501236 228.053207,82.251579 221.887283,82.280792 
	C210.441376,82.335007 205.024490,87.722366 205.021469,99.115166 
	C205.008209,148.943802 205.013763,198.772446 205.025742,248.601089 
	C205.026077,250.027893 205.175049,251.454651 205.245117,252.709534 
	C215.104416,252.709534 224.529236,252.709534 234.353638,252.709534 
	C234.353638,203.005783 234.353638,153.595352 234.353638,104.292435 
	C238.020508,104.292435 241.274826,104.292435 244.962372,104.292435 
	C244.962372,153.985611 244.962372,203.371902 244.962372,252.727310 
	C254.829483,252.727310 264.241608,252.727310 274.063538,252.727310 
	C274.063538,203.052048 274.063538,153.651657 274.063538,104.280746 
	C277.732605,104.280746 280.978058,104.280746 284.638428,104.280746 
	C284.638428,153.989838 284.638428,203.399857 284.638428,253.003784 
	C288.218689,253.003784 291.378784,253.003784 295.527222,253.003784 
M317.941650,214.499985 
	C317.941650,227.256653 317.941650,240.013321 317.941650,252.746552 
	C327.930206,252.746552 337.342377,252.746552 347.133850,252.746552 
	C347.133850,203.098587 347.133850,153.704117 347.133850,104.232986 
	C350.764069,104.232986 354.005615,104.232986 357.670319,104.232986 
	C357.670319,153.867828 357.670319,203.252472 357.670319,252.606659 
	C367.640381,252.606659 377.175995,252.606659 386.946350,252.606659 
	C386.946350,202.949844 386.946350,153.687378 386.946350,104.227592 
	C390.424194,104.227592 393.653625,104.227592 397.297791,104.227592 
	C397.297791,153.863815 397.297791,203.253555 397.297791,252.620880 
	C407.242188,252.620880 416.765106,252.620880 426.380798,252.620880 
	C426.380798,200.597260 426.426636,148.954071 426.338409,97.311104 
	C426.322601,88.042992 420.613220,82.513954 411.261810,82.321243 
	C403.435089,82.159966 395.601257,82.204811 387.772705,82.313240 
	C379.691772,82.425163 375.460205,85.536964 372.209412,93.897232 
	C368.842743,83.443756 360.995758,81.755737 351.805267,82.233345 
	C346.322479,82.518265 340.812592,82.269203 335.314911,82.281860 
	C323.136810,82.309883 317.948090,87.455490 317.945251,99.547569 
	C317.936310,137.531708 317.941772,175.515839 317.941650,214.499985 
M671.924683,226.499985 
	C671.924683,235.258423 671.924683,244.016846 671.924683,252.742645 
	C681.918579,252.742645 691.329895,252.742645 701.116821,252.742645 
	C701.116821,203.085297 701.116821,153.685440 701.116821,104.237335 
	C704.743164,104.237335 707.983398,104.237335 711.647766,104.237335 
	C711.647766,153.879318 711.647766,203.266159 711.647766,252.786301 
	C721.504578,252.786301 730.928772,252.786301 740.773010,252.786301 
	C740.773010,203.183517 740.773010,153.793335 740.773010,104.232071 
	C744.426819,104.232071 747.656250,104.232071 751.294495,104.232071 
	C751.294495,153.878952 751.294495,203.272430 751.294495,252.788391 
	C761.136475,252.788391 770.565552,252.788391 780.053223,252.788391 
	C780.173645,252.131256 780.332214,251.669968 780.332275,251.208649 
	C780.343506,199.892624 780.387817,148.576508 780.301331,97.260628 
	C780.285767,88.017609 774.579041,82.533485 765.179504,82.323944 
	C758.018738,82.164314 750.846130,82.463272 743.688904,82.238388 
	C735.444458,81.979347 729.312073,84.860146 726.149963,93.818451 
	C722.760559,84.139709 715.889526,81.835541 707.285461,82.233727 
	C701.300354,82.510712 695.291992,82.275497 689.294006,82.286629 
	C677.113586,82.309227 671.930359,87.446648 671.927979,99.542374 
	C671.919739,141.528244 671.924744,183.514099 671.924683,226.499985 
M58.091133,203.499969 
	C58.091133,219.922867 58.091133,236.345764 58.091133,252.667038 
	C68.265396,252.667038 77.826302,252.667038 87.833160,252.667038 
	C87.833160,202.964233 87.833160,153.596725 87.833160,104.330612 
	C91.525085,104.330612 94.749519,104.330612 98.351158,104.330612 
	C98.351158,154.068100 98.351158,203.459106 98.351158,252.716583 
	C108.171524,252.716583 117.600769,252.716583 127.205933,252.716583 
	C127.205933,240.784164 127.205963,229.138504 127.205917,217.492844 
	C127.205788,178.177292 127.215866,138.861725 127.181236,99.546204 
	C127.179054,97.066216 127.219185,94.477432 126.563591,92.127907 
	C124.842201,85.958801 119.376183,82.371483 111.980865,82.300797 
	C103.903976,82.223595 95.825775,82.283249 87.474762,82.283249 
	C87.474762,71.708885 87.474762,61.918285 87.474762,51.903713 
	C77.614929,51.903713 68.054199,51.903713 58.091133,51.903713 
	C58.091133,102.282799 58.091133,152.391388 58.091133,203.499969 
M499.695648,152.500122 
	C499.695404,134.502960 499.763245,116.505424 499.668518,98.508751 
	C499.614563,88.255676 493.741943,82.397858 483.482910,82.307335 
	C471.152527,82.198524 458.820007,82.211845 446.489319,82.300957 
	C436.528778,82.372932 430.869812,87.906013 430.858856,97.725372 
	C430.806641,144.551041 430.802734,191.376846 430.863220,238.202499 
	C430.875336,247.607559 436.404785,252.943878 445.891724,252.989304 
	C458.556061,253.049942 471.221100,253.050491 483.885437,252.989761 
	C493.934143,252.941559 499.560059,247.281464 499.671539,237.122681 
	C499.757446,229.291534 499.694305,221.458740 499.695343,213.626678 
	C499.696594,204.167419 499.695648,194.708160 499.695648,185.012894 
	C489.791229,185.012894 480.359985,185.012894 470.468079,185.012894 
	C470.468079,200.226578 470.468079,215.320679 470.468079,230.661026 
	C466.780975,230.661026 463.552856,230.661026 460.337219,230.661026 
	C460.337219,213.042664 460.337219,195.672714 460.337219,177.866333 
	C473.613068,177.866333 486.516052,177.866333 499.695648,177.866333 
	C499.695648,169.451950 499.695648,161.476028 499.695648,152.500122 
M629.500244,253.008774 
	C642.089844,253.008774 654.679443,253.008774 667.612793,253.008774 
	C667.612793,245.302490 667.612793,238.168793 667.612793,231.035095 
	C667.612732,187.236206 667.627625,143.437302 667.602783,99.638443 
	C667.596069,87.781937 662.011963,82.293823 650.103821,82.274490 
	C643.775452,82.264214 637.447144,82.272881 631.118774,82.272903 
	C621.835449,82.272949 612.552124,82.272919 603.046997,82.272919 
	C603.046997,89.676613 603.046997,96.591751 603.046997,104.114777 
	C614.839111,104.114777 626.527588,104.114777 638.021973,104.114777 
	C638.021973,108.326393 638.021973,111.929031 638.021973,115.893356 
	C630.117676,115.893356 622.488953,115.863762 614.860535,115.900429 
	C603.929321,115.952965 598.402466,121.519958 598.374084,132.584274 
	C598.331360,149.237732 598.357666,165.891373 598.357117,182.544937 
	C598.356506,200.697311 598.295227,218.849991 598.384277,237.001938 
	C598.434692,247.270294 604.031189,252.897751 614.012024,252.999649 
	C618.841064,253.048950 623.671021,253.008560 629.500244,253.008774 
M147.517059,103.982384 
	C155.444214,103.982384 163.371368,103.982384 171.186188,103.982384 
	C171.186188,108.320129 171.186188,112.023293 171.186188,115.907410 
	C162.775665,115.907410 154.782852,115.841225 146.791580,115.924797 
	C137.591583,116.021004 131.730164,121.673889 131.707031,130.864075 
	C131.616837,166.686646 131.609467,202.509766 131.707779,238.332291 
	C131.732132,247.206665 137.618515,252.901093 146.548813,252.972076 
	C160.377228,253.082016 174.207138,253.002106 188.036423,253.002625 
	C192.157928,253.002777 196.279434,253.002640 200.411758,253.002640 
	C200.607239,252.100113 200.795242,251.637146 200.795364,251.174149 
	C200.808624,200.022461 200.851654,148.870712 200.768402,97.719170 
	C200.753021,88.272835 194.482468,82.353729 184.838669,82.305115 
	C169.676819,82.228668 154.514313,82.275391 139.352127,82.301682 
	C138.268036,82.303566 137.184402,82.564423 136.266251,82.683395 
	C136.266251,89.962830 136.266251,96.877663 136.266251,103.982384 
	C139.895126,103.982384 143.209091,103.982384 147.517059,103.982384 
M551.107056,116.500061 
	C551.107056,140.646851 551.106689,164.793655 551.107239,188.940445 
	C551.107544,205.260361 551.054626,221.580521 551.133240,237.900070 
	C551.172546,246.055695 555.743958,252.316986 563.002625,252.721481 
	C573.236267,253.291748 583.525452,252.865799 593.831665,252.865799 
	C593.831665,245.409760 593.831665,238.333466 593.831665,230.704697 
	C589.234253,230.704697 584.859436,230.704697 580.487549,230.704697 
	C580.487549,188.243378 580.487549,146.338852 580.487549,103.904205 
	C585.088806,103.904205 589.481995,103.904205 593.765869,103.904205 
	C593.765869,96.460770 593.765869,89.551956 593.765869,82.351387 
	C583.845398,82.351387 574.205078,82.033401 564.596619,82.449921 
	C556.613159,82.795990 551.379150,88.787064 551.155640,97.016396 
	C550.988403,103.173546 551.112610,109.338608 551.107056,116.500061 
M516.348633,82.496666 
	C507.711823,84.468796 503.972900,89.265114 503.970062,98.555519 
	C503.954712,148.717453 503.958771,198.879395 503.971008,249.041336 
	C503.971313,250.305008 504.143433,251.568649 504.227081,252.716980 
	C513.992920,252.716980 523.407532,252.716980 533.221130,252.716980 
	C533.221130,203.030975 533.221130,153.626328 533.221130,103.727386 
	C538.019104,103.727386 542.413208,103.727386 546.536133,103.727386 
	C546.536133,96.324036 546.536133,89.422020 546.536133,82.369102 
	C536.502747,82.369102 526.853943,82.369102 516.348633,82.496666 
z"/>
<path fill="#030303" opacity="1.000000" stroke="none" 
	d="
M295.033020,253.003784 
	C291.378784,253.003784 288.218689,253.003784 284.638428,253.003784 
	C284.638428,203.399857 284.638428,153.989838 284.638428,104.280746 
	C280.978058,104.280746 277.732605,104.280746 274.063538,104.280746 
	C274.063538,153.651657 274.063538,203.052048 274.063538,252.727310 
	C264.241608,252.727310 254.829483,252.727310 244.962372,252.727310 
	C244.962372,203.371902 244.962372,153.985611 244.962372,104.292435 
	C241.274826,104.292435 238.020508,104.292435 234.353638,104.292435 
	C234.353638,153.595352 234.353638,203.005783 234.353638,252.709534 
	C224.529236,252.709534 215.104416,252.709534 205.245117,252.709534 
	C205.175049,251.454651 205.026077,250.027893 205.025742,248.601089 
	C205.013763,198.772446 205.008209,148.943802 205.021469,99.115166 
	C205.024490,87.722366 210.441376,82.335007 221.887283,82.280792 
	C228.053207,82.251579 234.229431,82.501236 240.383087,82.225426 
	C248.973816,81.840385 255.875275,84.103508 259.308960,93.671097 
	C262.680237,84.496689 269.161682,81.865944 277.600739,82.224052 
	C284.088501,82.499359 290.597443,82.244698 297.096527,82.289886 
	C308.137390,82.366653 313.620331,87.837723 313.629364,98.999931 
	C313.666718,145.162216 313.645782,191.324554 313.646179,237.486877 
	C313.646240,242.460358 313.646179,247.433853 313.646179,253.003784 
	C307.390533,253.003784 301.458862,253.003784 295.033020,253.003784 
z"/>
<path fill="#020202" opacity="1.000000" stroke="none" 
	d="
M317.941650,213.999969 
	C317.941772,175.515839 317.936310,137.531708 317.945251,99.547569 
	C317.948090,87.455490 323.136810,82.309883 335.314911,82.281860 
	C340.812592,82.269203 346.322479,82.518265 351.805267,82.233345 
	C360.995758,81.755737 368.842743,83.443756 372.209412,93.897232 
	C375.460205,85.536964 379.691772,82.425163 387.772705,82.313240 
	C395.601257,82.204811 403.435089,82.159966 411.261810,82.321243 
	C420.613220,82.513954 426.322601,88.042992 426.338409,97.311104 
	C426.426636,148.954071 426.380798,200.597260 426.380798,252.620880 
	C416.765106,252.620880 407.242188,252.620880 397.297791,252.620880 
	C397.297791,203.253555 397.297791,153.863815 397.297791,104.227592 
	C393.653625,104.227592 390.424194,104.227592 386.946350,104.227592 
	C386.946350,153.687378 386.946350,202.949844 386.946350,252.606659 
	C377.175995,252.606659 367.640381,252.606659 357.670319,252.606659 
	C357.670319,203.252472 357.670319,153.867828 357.670319,104.232986 
	C354.005615,104.232986 350.764069,104.232986 347.133850,104.232986 
	C347.133850,153.704117 347.133850,203.098587 347.133850,252.746552 
	C337.342377,252.746552 327.930206,252.746552 317.941650,252.746552 
	C317.941650,240.013321 317.941650,227.256653 317.941650,213.999969 
z"/>
<path fill="#020202" opacity="1.000000" stroke="none" 
	d="
M671.924683,225.999969 
	C671.924744,183.514099 671.919739,141.528244 671.927979,99.542374 
	C671.930359,87.446648 677.113586,82.309227 689.294006,82.286629 
	C695.291992,82.275497 701.300354,82.510712 707.285461,82.233727 
	C715.889526,81.835541 722.760559,84.139709 726.149963,93.818451 
	C729.312073,84.860146 735.444458,81.979347 743.688904,82.238388 
	C750.846130,82.463272 758.018738,82.164314 765.179504,82.323944 
	C774.579041,82.533485 780.285767,88.017609 780.301331,97.260628 
	C780.387817,148.576508 780.343506,199.892624 780.332275,251.208649 
	C780.332214,251.669968 780.173645,252.131256 780.053223,252.788391 
	C770.565552,252.788391 761.136475,252.788391 751.294495,252.788391 
	C751.294495,203.272430 751.294495,153.878952 751.294495,104.232071 
	C747.656250,104.232071 744.426819,104.232071 740.773010,104.232071 
	C740.773010,153.793335 740.773010,203.183517 740.773010,252.786301 
	C730.928772,252.786301 721.504578,252.786301 711.647766,252.786301 
	C711.647766,203.266159 711.647766,153.879318 711.647766,104.237335 
	C707.983398,104.237335 704.743164,104.237335 701.116821,104.237335 
	C701.116821,153.685440 701.116821,203.085297 701.116821,252.742645 
	C691.329895,252.742645 681.918579,252.742645 671.924683,252.742645 
	C671.924683,244.016846 671.924683,235.258423 671.924683,225.999969 
z"/>
<path fill="#030303" opacity="1.000000" stroke="none" 
	d="
M58.091133,202.999969 
	C58.091133,152.391388 58.091133,102.282799 58.091133,51.903713 
	C68.054199,51.903713 77.614929,51.903713 87.474762,51.903713 
	C87.474762,61.918285 87.474762,71.708885 87.474762,82.283249 
	C95.825775,82.283249 103.903976,82.223595 111.980865,82.300797 
	C119.376183,82.371483 124.842201,85.958801 126.563591,92.127907 
	C127.219185,94.477432 127.179054,97.066216 127.181236,99.546204 
	C127.215866,138.861725 127.205788,178.177292 127.205917,217.492844 
	C127.205963,229.138504 127.205933,240.784164 127.205933,252.716583 
	C117.600769,252.716583 108.171524,252.716583 98.351158,252.716583 
	C98.351158,203.459106 98.351158,154.068100 98.351158,104.330612 
	C94.749519,104.330612 91.525085,104.330612 87.833160,104.330612 
	C87.833160,153.596725 87.833160,202.964233 87.833160,252.667038 
	C77.826302,252.667038 68.265396,252.667038 58.091133,252.667038 
	C58.091133,236.345764 58.091133,219.922867 58.091133,202.999969 
z"/>
<path fill="#030303" opacity="1.000000" stroke="none" 
	d="
M499.695648,153.000122 
	C499.695648,161.476028 499.695648,169.451950 499.695648,177.866333 
	C486.516052,177.866333 473.613068,177.866333 460.337219,177.866333 
	C460.337219,195.672714 460.337219,213.042664 460.337219,230.661026 
	C463.552856,230.661026 466.780975,230.661026 470.468079,230.661026 
	C470.468079,215.320679 470.468079,200.226578 470.468079,185.012894 
	C480.359985,185.012894 489.791229,185.012894 499.695648,185.012894 
	C499.695648,194.708160 499.696594,204.167419 499.695343,213.626678 
	C499.694305,221.458740 499.757446,229.291534 499.671539,237.122681 
	C499.560059,247.281464 493.934143,252.941559 483.885437,252.989761 
	C471.221100,253.050491 458.556061,253.049942 445.891724,252.989304 
	C436.404785,252.943878 430.875336,247.607559 430.863220,238.202499 
	C430.802734,191.376846 430.806641,144.551041 430.858856,97.725372 
	C430.869812,87.906013 436.528778,82.372932 446.489319,82.300957 
	C458.820007,82.211845 471.152527,82.198524 483.482910,82.307335 
	C493.741943,82.397858 499.614563,88.255676 499.668518,98.508751 
	C499.763245,116.505424 499.695404,134.502960 499.695648,153.000122 
M470.398010,132.500214 
	C470.398010,123.082771 470.398010,113.665329 470.398010,104.312622 
	C466.556854,104.312622 463.328674,104.312622 460.242676,104.312622 
	C460.242676,122.398041 460.242676,140.155502 460.242676,157.812485 
	C463.773560,157.812485 467.015442,157.812485 470.398041,157.812485 
	C470.398041,149.488708 470.398041,141.494461 470.398010,132.500214 
z"/>
<path fill="#060606" opacity="1.000000" stroke="none" 
	d="
M629.000366,253.008774 
	C623.671021,253.008560 618.841064,253.048950 614.012024,252.999649 
	C604.031189,252.897751 598.434692,247.270294 598.384277,237.001938 
	C598.295227,218.849991 598.356506,200.697311 598.357117,182.544937 
	C598.357666,165.891373 598.331360,149.237732 598.374084,132.584274 
	C598.402466,121.519958 603.929321,115.952965 614.860535,115.900429 
	C622.488953,115.863762 630.117676,115.893356 638.021973,115.893356 
	C638.021973,111.929031 638.021973,108.326393 638.021973,104.114777 
	C626.527588,104.114777 614.839111,104.114777 603.046997,104.114777 
	C603.046997,96.591751 603.046997,89.676613 603.046997,82.272919 
	C612.552124,82.272919 621.835449,82.272949 631.118774,82.272903 
	C637.447144,82.272881 643.775452,82.264214 650.103821,82.274490 
	C662.011963,82.293823 667.596069,87.781937 667.602783,99.638443 
	C667.627625,143.437302 667.612732,187.236206 667.612793,231.035095 
	C667.612793,238.168793 667.612793,245.302490 667.612793,253.008774 
	C654.679443,253.008774 642.089844,253.008774 629.000366,253.008774 
M638.304138,218.491302 
	C638.304138,191.592575 638.304138,164.693848 638.304138,137.711395 
	C634.513000,137.711395 631.294739,137.711395 627.948975,137.711395 
	C627.948975,168.855804 627.948975,199.697174 627.948975,230.644501 
	C631.480164,230.644501 634.721252,230.644501 638.304138,230.644501 
	C638.304138,226.754166 638.304138,223.120148 638.304138,218.491302 
z"/>
<path fill="#020202" opacity="1.000000" stroke="none" 
	d="
M147.020050,103.982384 
	C143.209091,103.982384 139.895126,103.982384 136.266251,103.982384 
	C136.266251,96.877663 136.266251,89.962830 136.266251,82.683395 
	C137.184402,82.564423 138.268036,82.303566 139.352127,82.301682 
	C154.514313,82.275391 169.676819,82.228668 184.838669,82.305115 
	C194.482468,82.353729 200.753021,88.272835 200.768402,97.719170 
	C200.851654,148.870712 200.808624,200.022461 200.795364,251.174149 
	C200.795242,251.637146 200.607239,252.100113 200.411758,253.002640 
	C196.279434,253.002640 192.157928,253.002777 188.036423,253.002625 
	C174.207138,253.002106 160.377228,253.082016 146.548813,252.972076 
	C137.618515,252.901093 131.732132,247.206665 131.707779,238.332291 
	C131.609467,202.509766 131.616837,166.686646 131.707031,130.864075 
	C131.730164,121.673889 137.591583,116.021004 146.791580,115.924797 
	C154.782852,115.841225 162.775665,115.907410 171.186188,115.907410 
	C171.186188,112.023293 171.186188,108.320129 171.186188,103.982384 
	C163.371368,103.982384 155.444214,103.982384 147.020050,103.982384 
M160.819794,204.499924 
	C160.819794,213.238922 160.819794,221.977921 160.819794,230.658783 
	C164.747330,230.658783 167.987778,230.658783 171.350677,230.658783 
	C171.350677,199.537933 171.350677,168.697525 171.350677,137.608673 
	C167.820587,137.608673 164.579727,137.608673 160.819794,137.608673 
	C160.819794,159.698334 160.819794,181.599121 160.819794,204.499924 
z"/>
<path fill="#020202" opacity="1.000000" stroke="none" 
	d="
M551.107056,116.000107 
	C551.112610,109.338608 550.988403,103.173546 551.155640,97.016396 
	C551.379150,88.787064 556.613159,82.795990 564.596619,82.449921 
	C574.205078,82.033401 583.845398,82.351387 593.765869,82.351387 
	C593.765869,89.551956 593.765869,96.460770 593.765869,103.904205 
	C589.481995,103.904205 585.088806,103.904205 580.487549,103.904205 
	C580.487549,146.338852 580.487549,188.243378 580.487549,230.704697 
	C584.859436,230.704697 589.234253,230.704697 593.831665,230.704697 
	C593.831665,238.333466 593.831665,245.409760 593.831665,252.865799 
	C583.525452,252.865799 573.236267,253.291748 563.002625,252.721481 
	C555.743958,252.316986 551.172546,246.055695 551.133240,237.900070 
	C551.054626,221.580521 551.107544,205.260361 551.107239,188.940445 
	C551.106689,164.793655 551.107056,140.646851 551.107056,116.000107 
z"/>
<path fill="#010101" opacity="1.000000" stroke="none" 
	d="
M516.776855,82.432884 
	C526.853943,82.369102 536.502747,82.369102 546.536133,82.369102 
	C546.536133,89.422020 546.536133,96.324036 546.536133,103.727386 
	C542.413208,103.727386 538.019104,103.727386 533.221130,103.727386 
	C533.221130,153.626328 533.221130,203.030975 533.221130,252.716980 
	C523.407532,252.716980 513.992920,252.716980 504.227081,252.716980 
	C504.143433,251.568649 503.971313,250.305008 503.971008,249.041336 
	C503.958771,198.879395 503.954712,148.717453 503.970062,98.555519 
	C503.972900,89.265114 507.711823,84.468796 516.776855,82.432884 
z"/>
<path fill="#FFFFFF" opacity="1.000000" stroke="none" 
	d="
M470.398010,133.000214 
	C470.398041,141.494461 470.398041,149.488708 470.398041,157.812485 
	C467.015442,157.812485 463.773560,157.812485 460.242676,157.812485 
	C460.242676,140.155502 460.242676,122.398041 460.242676,104.312622 
	C463.328674,104.312622 466.556854,104.312622 470.398010,104.312622 
	C470.398010,113.665329 470.398010,123.082771 470.398010,133.000214 
z"/>
<path fill="#FDFDFD" opacity="1.000000" stroke="none" 
	d="
M638.304138,218.988724 
	C638.304138,223.120148 638.304138,226.754166 638.304138,230.644501 
	C634.721252,230.644501 631.480164,230.644501 627.948975,230.644501 
	C627.948975,199.697174 627.948975,168.855804 627.948975,137.711395 
	C631.294739,137.711395 634.513000,137.711395 638.304138,137.711395 
	C638.304138,164.693848 638.304138,191.592575 638.304138,218.988724 
z"/>
<path fill="#F4F4F4" opacity="1.000000" stroke="none" 
	d="
M160.819794,203.999908 
	C160.819794,181.599121 160.819794,159.698334 160.819794,137.608673 
	C164.579727,137.608673 167.820587,137.608673 171.350677,137.608673 
	C171.350677,168.697525 171.350677,199.537933 171.350677,230.658783 
	C167.987778,230.658783 164.747330,230.658783 160.819794,230.658783 
	C160.819794,221.977921 160.819794,213.238922 160.819794,203.999908 
z"/>
</svg>
